<svg viewBox="0 0 800 800" xmlns="http://www.w3.org/2000/svg"><path d="M882.3953761050404,402.4455478828264 L882.5025989047971,391.30262766833135 M399.99999999999994,126.99500917396017 L399.99999999999994,115.91401366204059 M882.3953761050404,402.4455478828264 L399.99999999999994,126.99500917396017 M882.5025989047971,391.30262766833135 L399.99999999999994,115.91401366204059 M-82.39537610504044,402.4455478828264 L-82.50259890479708,391.30262766833124 M399.99999999999994,126.99500917396017 L-82.39537610504044,402.4455478828264 M399.99999999999994,115.91401366204059 L-82.50259890479708,391.30262766833124 M399.99999999999994,684.0859863379594 L399.99999999999994,672.8811408431159 M-82.39537610504044,402.4455478828264 L399.99999999999994,684.0859863379594 M-82.50259890479708,391.30262766833124 L399.99999999999994,672.8811408431159 M399.99999999999994,684.0859863379594 L882.3953761050404,402.4455478828264 M399.99999999999994,672.8811408431159 L882.5025989047971,391.30262766833135 M399.99999999999994,678.3911673172984 L399.99999999999994,667.1875600306513 M872.7474685829394,402.4455478828264 L872.852546926701,391.30262766833135 M399.99999999999994,678.3911673172984 L872.7474685829394,402.4455478828264 M399.99999999999994,667.1875600306513 L872.852546926701,391.30262766833135 M-72.74746858293963,402.4455478828264 L-72.85254692670105,391.30262766833124 M-72.74746858293963,402.4455478828264 L399.99999999999994,678.3911673172984 M-72.85254692670105,391.30262766833124 L399.99999999999994,667.1875600306513 M399.99999999999994,132.44467909785516 L399.99999999999994,121.36244538769705 M399.99999999999994,132.44467909785516 L-72.74746858293963,402.4455478828264 M399.99999999999994,121.36244538769705 L-72.85254692670105,391.30262766833124 M872.7474685829394,402.4455478828264 L399.99999999999994,132.44467909785516 M872.852546926701,391.30262766833135 L399.99999999999994,121.36244538769705" stroke="black"  stroke-width="4"  fill="red"/></svg>